<svg width="104" height="47" viewBox="0 0 104 47" fill="none" xmlns="http://www.w3.org/2000/svg">
    <path d="M97.671 29.8195C98.1879 29.0148 98.8877 28.3438 99.7134 27.8613C100.535 27.3737 101.474 27.1189 102.43 27.1243V32.0408H101.156C100.223 31.9727 99.2962 32.2417 98.5448 32.7988C98.2208 33.1458 97.9758 33.5589 97.8268 34.0096C97.6778 34.4603 97.6282 34.938 97.6815 35.4097V42.4529H93.0282V27.2507H97.6815V29.7773L97.671 29.8195ZM89.6593 27.2928V42.4529H85.0165V27.2507L89.6593 27.2928ZM87.3432 25.7136C86.6084 25.7374 85.8912 25.4859 85.3324 25.0082C85.0895 24.7756 84.8961 24.4963 84.7639 24.187C84.6384 23.8796 84.5741 23.5506 84.5744 23.2185C84.5628 22.883 84.6246 22.549 84.7555 22.2398C84.8865 21.9307 85.0833 21.6539 85.3324 21.4288C85.8797 20.9284 86.6021 20.6636 87.3432 20.6918C87.7024 20.6767 88.0609 20.7342 88.3973 20.8608C88.7338 20.9874 89.0413 21.1806 89.3014 21.4288C89.5532 21.6499 89.7543 21.9228 89.8909 22.2289C90.0246 22.5416 90.0927 22.8784 90.0909 23.2185C90.0928 23.5552 90.0246 23.8886 89.8909 24.1976C89.7518 24.5052 89.5511 24.7811 89.3014 25.0082C89.0358 25.2496 88.7251 25.4361 88.3873 25.5572C88.0495 25.6782 87.6911 25.7313 87.3326 25.7136H87.3432ZM75.6573 35.5045L73.2885 28.5245L70.9619 35.5045H75.6573ZM76.8574 39.084H69.7301L68.5826 42.4529H63.7187L70.625 23.3764H76.0047L82.9109 42.4529H77.9945L76.8574 39.084Z" fill="#181818"/>
    <path d="M99.0716 3.64666V13.7008H97.1661V3.64666H99.0716ZM95.2921 3.64666V13.7008H93.3866V3.64666H95.2921ZM91.5442 6.1944V13.7218H89.6387V6.1944H91.5442ZM90.5967 5.29953C90.4427 5.30081 90.2896 5.27589 90.144 5.22584C90.0024 5.17195 89.8734 5.08954 89.765 4.98371C89.6554 4.88037 89.5692 4.75471 89.5123 4.61522C89.4144 4.33579 89.4144 4.03137 89.5123 3.75193C89.5705 3.61622 89.6566 3.49427 89.765 3.39399C89.9932 3.18877 90.2898 3.07614 90.5967 3.07815C90.9029 3.08006 91.1981 3.19218 91.4284 3.39399C91.5406 3.49322 91.6303 3.61525 91.6916 3.75193C91.804 4.02873 91.804 4.33843 91.6916 4.61522C91.6297 4.7546 91.5402 4.87996 91.4284 4.98371C91.32 5.08954 91.191 5.17195 91.0494 5.22584C90.8926 5.27337 90.7284 5.29123 90.5651 5.27848L90.5967 5.29953ZM88.249 4.24674V5.78382H85.7223V13.7218H83.8168V5.78382H81.2901V4.24674H88.249ZM76.9842 6.09966C77.3862 6.08185 77.7874 6.14958 78.1612 6.2984C78.5351 6.44722 78.8731 6.67373 79.1529 6.96293C79.4448 7.27869 79.6691 7.65072 79.8121 8.05623C79.9551 8.46174 80.0138 8.89218 79.9846 9.32118V13.7429H78.0896V9.58437C78.1243 9.08322 77.9618 8.58834 77.6369 8.20523C77.478 8.04132 77.2859 7.9133 77.0734 7.82977C76.861 7.74624 76.6331 7.70913 76.4051 7.72094C76.1756 7.70898 75.9461 7.74597 75.7319 7.82947C75.5177 7.91296 75.3238 8.04105 75.1629 8.20523C74.8379 8.58834 74.6755 9.08322 74.7102 9.58437V13.7429H72.8046V6.1944H74.6996V7.13138C74.9551 6.80279 75.2878 6.54241 75.6682 6.37337C76.0657 6.17031 76.5062 6.06562 76.9526 6.06807L76.9842 6.09966ZM70.9307 6.20492V13.7323H69.0146V12.7848C68.7594 13.1163 68.4269 13.3802 68.046 13.5534C67.6487 13.7431 67.2124 13.8369 66.7722 13.8271C66.2301 13.8369 65.6943 13.7102 65.214 13.4586C64.7646 13.1984 64.3993 12.8147 64.1612 12.3532C63.8994 11.816 63.7695 11.2241 63.7823 10.6266V6.1944H65.6878V10.3318C65.6537 10.8361 65.8159 11.3341 66.1405 11.7215C66.4787 12.0256 66.9174 12.1938 67.3723 12.1938C67.8271 12.1938 68.2658 12.0256 68.604 11.7215C68.9248 11.332 69.0865 10.8356 69.0567 10.3318V6.1944L70.9307 6.20492Z" fill="#A3A3A3"/>
    <path d="M101.672 4.66955H101.861C102.072 4.66955 102.24 4.59585 102.24 4.41687C102.24 4.2379 102.125 4.16422 101.893 4.16422H101.672V4.66955ZM101.672 5.62759H101.293V3.94312C101.501 3.90126 101.712 3.8801 101.925 3.87996C102.122 3.86778 102.319 3.91156 102.493 4.00629C102.546 4.05294 102.59 4.11034 102.619 4.17474C102.635 4.24045 102.635 4.30906 102.619 4.37477C102.613 4.46728 102.576 4.55511 102.515 4.62528C102.455 4.69544 102.373 4.74419 102.282 4.7643C102.365 4.80287 102.436 4.86175 102.49 4.93541C102.543 5.00907 102.577 5.09509 102.588 5.1854C102.61 5.32973 102.649 5.47103 102.704 5.60653H102.293C102.23 5.4768 102.188 5.33838 102.167 5.19594C102.164 5.15417 102.153 5.11335 102.134 5.07623C102.115 5.03911 102.088 5.00652 102.055 4.98063C102.022 4.95474 101.984 4.93613 101.943 4.92606C101.903 4.91599 101.86 4.91467 101.819 4.92221H101.64L101.672 5.62759ZM100.619 4.74323C100.612 4.91766 100.64 5.09173 100.702 5.25496C100.764 5.4182 100.858 5.56724 100.979 5.69311C101.1 5.81899 101.245 5.91911 101.406 5.98746C101.567 6.0558 101.739 6.09094 101.914 6.0908C102.271 6.0908 102.614 5.94883 102.867 5.69612C103.12 5.4434 103.262 5.10063 103.262 4.74323C103.262 4.38584 103.12 4.04309 102.867 3.79037C102.614 3.53765 102.271 3.39567 101.914 3.39567C101.742 3.39975 101.572 3.43793 101.414 3.50801C101.257 3.57809 101.115 3.67869 100.996 3.80398C100.878 3.92927 100.785 4.07677 100.724 4.23798C100.663 4.3992 100.635 4.57092 100.64 4.74323H100.619ZM103.598 4.74323C103.604 5.07931 103.508 5.4093 103.325 5.69075C103.139 5.9719 102.873 6.19118 102.562 6.32058C102.25 6.44998 101.908 6.48362 101.577 6.41718C101.245 6.35557 100.94 6.19392 100.703 5.95395C100.465 5.71559 100.304 5.41119 100.24 5.08013C100.174 4.74962 100.207 4.4068 100.337 4.09549C100.466 3.78419 100.685 3.51854 100.967 3.33251C101.248 3.14878 101.578 3.05345 101.914 3.05879C102.137 3.05012 102.36 3.08962 102.567 3.1746C102.771 3.26108 102.957 3.38618 103.114 3.54306C103.268 3.70057 103.389 3.88652 103.472 4.09051C103.568 4.29496 103.618 4.51759 103.62 4.74323H103.598Z" fill="#A3A3A3"/>
    <path d="M49.9381 11.3959V41.5582C49.9353 42.7784 49.45 43.9481 48.5881 44.812C47.7262 45.6759 46.5577 46.1638 45.3374 46.1694H13.1011C12.0513 46.1551 11.0377 45.7838 10.227 45.1166L1.72049 38.305C1.18376 37.8711 0.751037 37.3225 0.454085 36.6994C0.157132 36.0764 0.00348377 35.3947 0.00444718 34.7045V3.09992C-0.0103016 2.98716 0.011857 2.87266 0.0676117 2.77355C0.120853 2.67448 0.206269 2.5965 0.309764 2.55246C0.415557 2.51637 0.530331 2.51637 0.636125 2.55246C0.749707 2.56177 0.855309 2.61457 0.930903 2.69985L10.6587 10.4484C10.9229 10.6679 11.1381 10.9405 11.2903 11.2485C11.4445 11.5776 11.5202 11.938 11.5114 12.3013V33.578C11.5114 34.1895 11.7543 34.776 12.1867 35.2084C12.6191 35.6407 13.2055 35.8836 13.817 35.8836H37.3257C37.9353 35.8809 38.5191 35.6367 38.9492 35.2046C39.3793 34.7726 39.6208 34.1877 39.6208 33.578V11.4696C39.6232 11.3579 39.6584 11.2495 39.7221 11.1577C39.7857 11.066 39.875 10.995 39.9787 10.9537H40.1998H49.4327C49.5776 10.9567 49.7162 11.0129 49.8222 11.1116C49.9236 11.2159 49.9803 11.3557 49.9802 11.5011L49.9381 11.3959Z" fill="#181818"/>
    <path d="M49.359 9.35468H31.2616C31.1923 9.33888 31.1204 9.33888 31.0511 9.35468C30.9791 9.37653 30.9139 9.41639 30.8616 9.47048C30.8134 9.52339 30.7743 9.58385 30.7458 9.64945C30.7319 9.71895 30.7319 9.79051 30.7458 9.86001V25.6518C30.7467 25.8026 30.7174 25.952 30.6595 26.0913C30.6017 26.2305 30.5164 26.3567 30.4089 26.4624C30.1944 26.6797 29.9035 26.8044 29.5983 26.8099H21.555C21.2497 26.8044 20.9588 26.6797 20.7443 26.4624C20.6363 26.3571 20.5507 26.231 20.4928 26.0916C20.4349 25.9523 20.4059 25.8027 20.4074 25.6518V9.86001C20.4044 9.71517 20.3482 9.57652 20.2495 9.47048C20.1966 9.42233 20.1361 9.38321 20.0705 9.35468C20.0011 9.33989 19.9294 9.33989 19.86 9.35468H12.4905C11.9693 9.3561 11.4635 9.17761 11.0587 8.84934L1.32043 1.03768C1.20831 0.974952 1.12241 0.874094 1.07831 0.753425C1.03125 0.631472 1.03125 0.496373 1.07831 0.374421C1.11839 0.248831 1.20501 0.143353 1.32043 0.0796428C1.43104 0.0132141 1.56126 -0.0128363 1.68891 0.00594009H38.5364C39.057 0.00789658 39.5617 0.186017 39.9682 0.511288L49.738 8.32295C49.8138 8.37766 49.8752 8.4499 49.917 8.53351C49.9681 8.61155 49.9938 8.70347 49.9907 8.7967C49.9851 8.89011 49.9562 8.98062 49.9065 9.0599C49.8669 9.14549 49.8003 9.21575 49.717 9.25993C49.6131 9.33382 49.4859 9.36748 49.359 9.35468Z" fill="#181818"/>
</svg>